<?xml version="1.0" encoding="UTF-8" standalone="no"?><svg xmlns="http://www.w3.org/2000/svg" xmlns:xlink="http://www.w3.org/1999/xlink" contentStyleType="text/css" height="348px" preserveAspectRatio="none" style="width:696px;height:348px;background:#FFFFFF;" version="1.1" viewBox="0 0 696 348" width="696px" zoomAndPan="magnify"><defs/><g><!--class Abstraction--><g id="elem_Abstraction"><rect codeLine="8" fill="#F1F1F1" height="65.6094" id="Abstraction" rx="2.5" ry="2.5" style="stroke:#181818;stroke-width:0.5;" width="103" x="67.5" y="7"/><ellipse cx="82.5" cy="23" fill="#B4A7E5" rx="11" ry="11" style="stroke:#181818;stroke-width:1.0;"/><path d="M83.4531,19.6406 L83.4531,26.2969 L85.1719,26.2969 Q85.7812,26.2969 86.0469,26.5313 Q86.3125,26.7656 86.3125,27.1563 Q86.3125,27.5313 86.0469,27.7656 Q85.7812,28 85.1719,28 L80.0312,28 Q79.4219,28 79.1562,27.7656 Q78.8906,27.5313 78.8906,27.1406 Q78.8906,26.7656 79.1562,26.5313 Q79.4219,26.2969 80.0312,26.2969 L81.75,26.2969 L81.75,19.6406 L80.0312,19.6406 Q79.4219,19.6406 79.1562,19.4063 Q78.8906,19.1719 78.8906,18.7813 Q78.8906,18.4063 79.1562,18.1719 Q79.4219,17.9375 80.0312,17.9375 L85.1719,17.9375 Q85.7812,17.9375 86.0469,18.1719 Q86.3125,18.4063 86.3125,18.7813 Q86.3125,19.1719 86.0469,19.4063 Q85.7812,19.6406 85.1719,19.6406 L83.4531,19.6406 Z " fill="#000000"/><text fill="#000000" font-family="sans-serif" font-size="14" font-style="italic" lengthAdjust="spacing" textLength="71" x="96.5" y="28.7285">Abstraction</text><line style="stroke:#181818;stroke-width:0.5;" x1="68.5" x2="169.5" y1="39" y2="39"/><line style="stroke:#181818;stroke-width:0.5;" x1="68.5" x2="169.5" y1="47" y2="47"/><ellipse cx="78.5" cy="61.3047" fill="#84BE84" rx="3" ry="3" style="stroke:#038048;stroke-width:1.0;"/><text fill="#000000" font-family="sans-serif" font-size="14" lengthAdjust="spacing" textLength="70" x="87.5" y="65.5332">operation()</text></g><!--class Implementation--><g id="elem_Implementation"><rect codeLine="12" fill="#F1F1F1" height="65.6094" id="Implementation" rx="2.5" ry="2.5" style="stroke:#181818;stroke-width:0.5;" width="128" x="299" y="276"/><ellipse cx="314" cy="292" fill="#A9DCDF" rx="11" ry="11" style="stroke:#181818;stroke-width:1.0;"/><path d="M316.1875,293.7656 L312.0469,293.7656 L311.625,294.7969 L312.0469,294.7969 Q312.6563,294.7969 312.9219,295.0313 Q313.1875,295.2656 313.1875,295.6563 Q313.1875,296.0313 312.9219,296.2656 Q312.6563,296.5 312.0469,296.5 L309.75,296.5 Q309.1406,296.5 308.8828,296.2656 Q308.625,296.0313 308.625,295.6406 Q308.625,295.2656 308.8984,295.0234 Q309.1719,294.7813 309.7969,294.7969 L312.4688,288.1406 L311.3594,288.1406 Q310.75,288.1406 310.4844,287.9063 Q310.2188,287.6719 310.2188,287.2813 Q310.2188,286.9063 310.4844,286.6719 Q310.75,286.4375 311.3594,286.4375 L315.0313,286.4375 L318.4219,294.7969 Q319.0156,294.7969 319.2031,294.9375 Q319.5938,295.2031 319.5938,295.6563 Q319.5938,296.0313 319.3359,296.2656 Q319.0781,296.5 318.4688,296.5 L316.1719,296.5 Q315.5625,296.5 315.2969,296.2656 Q315.0313,296.0313 315.0313,295.6406 Q315.0313,295.2656 315.2969,295.0313 Q315.5625,294.7969 316.1719,294.7969 L316.5938,294.7969 L316.1875,293.7656 Z M315.4688,292.0625 L314.1094,288.6875 L312.7344,292.0625 L315.4688,292.0625 Z " fill="#000000"/><text fill="#000000" font-family="sans-serif" font-size="14" font-style="italic" lengthAdjust="spacing" textLength="96" x="328" y="297.7285">Implementation</text><line style="stroke:#181818;stroke-width:0.5;" x1="300" x2="426" y1="308" y2="308"/><line style="stroke:#181818;stroke-width:0.5;" x1="300" x2="426" y1="316" y2="316"/><ellipse cx="310" cy="330.3047" fill="#84BE84" rx="3" ry="3" style="stroke:#038048;stroke-width:1.0;"/><text fill="#000000" font-family="sans-serif" font-size="14" lengthAdjust="spacing" textLength="95" x="319" y="334.5332">operationImpl()</text></g><!--class ConcreteImplementationA--><g id="elem_ConcreteImplementationA"><rect codeLine="16" fill="#F1F1F1" height="65.6094" id="ConcreteImplementationA" rx="2.5" ry="2.5" style="stroke:#181818;stroke-width:0.5;" width="194" x="266" y="141.5"/><ellipse cx="281" cy="157.5" fill="#ADD1B2" rx="11" ry="11" style="stroke:#181818;stroke-width:1.0;"/><path d="M283.7656,153.375 Q283.9219,153.1563 284.1094,153.0469 Q284.2969,152.9375 284.5156,152.9375 Q284.8906,152.9375 285.125,153.1953 Q285.3594,153.4531 285.3594,154.0625 L285.3594,155.5156 Q285.3594,156.125 285.125,156.3906 Q284.8906,156.6563 284.5156,156.6563 Q284.1719,156.6563 283.9688,156.4531 Q283.7656,156.2656 283.6563,155.75 Q283.6094,155.3906 283.4219,155.2031 Q283.0938,154.8281 282.4844,154.6094 Q281.875,154.3906 281.25,154.3906 Q280.4844,154.3906 279.8516,154.7188 Q279.2188,155.0469 278.7266,155.7969 Q278.2344,156.5469 278.2344,157.5781 L278.2344,158.6719 Q278.2344,159.9063 279.125,160.7266 Q280.0156,161.5469 281.6094,161.5469 Q282.5469,161.5469 283.2031,161.2969 Q283.5938,161.1406 284.0156,160.7031 Q284.2813,160.4375 284.4297,160.3594 Q284.5781,160.2813 284.7813,160.2813 Q285.1094,160.2813 285.3672,160.5391 Q285.625,160.7969 285.625,161.1406 Q285.625,161.4844 285.2813,161.8906 Q284.7813,162.4688 283.9844,162.7969 Q282.9063,163.25 281.6094,163.25 Q280.0938,163.25 278.8906,162.625 Q277.9063,162.125 277.2188,161.0547 Q276.5313,159.9844 276.5313,158.7031 L276.5313,157.5469 Q276.5313,156.2188 277.1484,155.0703 Q277.7656,153.9219 278.8594,153.3047 Q279.9531,152.6875 281.1875,152.6875 Q281.9219,152.6875 282.5703,152.8516 Q283.2188,153.0156 283.7656,153.375 Z " fill="#000000"/><text fill="#000000" font-family="sans-serif" font-size="14" lengthAdjust="spacing" textLength="162" x="295" y="163.2285">ConcreteImplementationA</text><line style="stroke:#181818;stroke-width:0.5;" x1="267" x2="459" y1="173.5" y2="173.5"/><line style="stroke:#181818;stroke-width:0.5;" x1="267" x2="459" y1="181.5" y2="181.5"/><ellipse cx="277" cy="195.8047" fill="#84BE84" rx="3" ry="3" style="stroke:#038048;stroke-width:1.0;"/><text fill="#000000" font-family="sans-serif" font-size="14" lengthAdjust="spacing" textLength="95" x="286" y="200.0332">operationImpl()</text></g><!--class ConcreteImplementationB--><g id="elem_ConcreteImplementationB"><rect codeLine="20" fill="#F1F1F1" height="65.6094" id="ConcreteImplementationB" rx="2.5" ry="2.5" style="stroke:#181818;stroke-width:0.5;" width="194" x="495" y="141.5"/><ellipse cx="510" cy="157.5" fill="#ADD1B2" rx="11" ry="11" style="stroke:#181818;stroke-width:1.0;"/><path d="M512.7656,153.375 Q512.9219,153.1563 513.1094,153.0469 Q513.2969,152.9375 513.5156,152.9375 Q513.8906,152.9375 514.125,153.1953 Q514.3594,153.4531 514.3594,154.0625 L514.3594,155.5156 Q514.3594,156.125 514.125,156.3906 Q513.8906,156.6563 513.5156,156.6563 Q513.1719,156.6563 512.9688,156.4531 Q512.7656,156.2656 512.6563,155.75 Q512.6094,155.3906 512.4219,155.2031 Q512.0938,154.8281 511.4844,154.6094 Q510.875,154.3906 510.25,154.3906 Q509.4844,154.3906 508.8516,154.7188 Q508.2188,155.0469 507.7266,155.7969 Q507.2344,156.5469 507.2344,157.5781 L507.2344,158.6719 Q507.2344,159.9063 508.125,160.7266 Q509.0156,161.5469 510.6094,161.5469 Q511.5469,161.5469 512.2031,161.2969 Q512.5938,161.1406 513.0156,160.7031 Q513.2813,160.4375 513.4297,160.3594 Q513.5781,160.2813 513.7813,160.2813 Q514.1094,160.2813 514.3672,160.5391 Q514.625,160.7969 514.625,161.1406 Q514.625,161.4844 514.2813,161.8906 Q513.7813,162.4688 512.9844,162.7969 Q511.9063,163.25 510.6094,163.25 Q509.0938,163.25 507.8906,162.625 Q506.9063,162.125 506.2188,161.0547 Q505.5313,159.9844 505.5313,158.7031 L505.5313,157.5469 Q505.5313,156.2188 506.1484,155.0703 Q506.7656,153.9219 507.8594,153.3047 Q508.9531,152.6875 510.1875,152.6875 Q510.9219,152.6875 511.5703,152.8516 Q512.2188,153.0156 512.7656,153.375 Z " fill="#000000"/><text fill="#000000" font-family="sans-serif" font-size="14" lengthAdjust="spacing" textLength="162" x="524" y="163.2285">ConcreteImplementationB</text><line style="stroke:#181818;stroke-width:0.5;" x1="496" x2="688" y1="173.5" y2="173.5"/><line style="stroke:#181818;stroke-width:0.5;" x1="496" x2="688" y1="181.5" y2="181.5"/><ellipse cx="506" cy="195.8047" fill="#84BE84" rx="3" ry="3" style="stroke:#038048;stroke-width:1.0;"/><text fill="#000000" font-family="sans-serif" font-size="14" lengthAdjust="spacing" textLength="95" x="515" y="200.0332">operationImpl()</text></g><!--class RefinedAbstraction--><g id="elem_RefinedAbstraction"><rect codeLine="24" fill="#F1F1F1" height="83.2188" id="RefinedAbstraction" rx="2.5" ry="2.5" style="stroke:#181818;stroke-width:0.5;" width="224" x="7" y="133"/><ellipse cx="54.75" cy="149" fill="#ADD1B2" rx="11" ry="11" style="stroke:#181818;stroke-width:1.0;"/><path d="M57.5156,144.875 Q57.6719,144.6563 57.8594,144.5469 Q58.0469,144.4375 58.2656,144.4375 Q58.6406,144.4375 58.875,144.6953 Q59.1094,144.9531 59.1094,145.5625 L59.1094,147.0156 Q59.1094,147.625 58.875,147.8906 Q58.6406,148.1563 58.2656,148.1563 Q57.9219,148.1563 57.7188,147.9531 Q57.5156,147.7656 57.4063,147.25 Q57.3594,146.8906 57.1719,146.7031 Q56.8438,146.3281 56.2344,146.1094 Q55.625,145.8906 55,145.8906 Q54.2344,145.8906 53.6016,146.2188 Q52.9688,146.5469 52.4766,147.2969 Q51.9844,148.0469 51.9844,149.0781 L51.9844,150.1719 Q51.9844,151.4063 52.875,152.2266 Q53.7656,153.0469 55.3594,153.0469 Q56.2969,153.0469 56.9531,152.7969 Q57.3438,152.6406 57.7656,152.2031 Q58.0313,151.9375 58.1797,151.8594 Q58.3281,151.7813 58.5313,151.7813 Q58.8594,151.7813 59.1172,152.0391 Q59.375,152.2969 59.375,152.6406 Q59.375,152.9844 59.0313,153.3906 Q58.5313,153.9688 57.7344,154.2969 Q56.6563,154.75 55.3594,154.75 Q53.8438,154.75 52.6406,154.125 Q51.6563,153.625 50.9688,152.5547 Q50.2813,151.4844 50.2813,150.2031 L50.2813,149.0469 Q50.2813,147.7188 50.8984,146.5703 Q51.5156,145.4219 52.6094,144.8047 Q53.7031,144.1875 54.9375,144.1875 Q55.6719,144.1875 56.3203,144.3516 Q56.9688,144.5156 57.5156,144.875 Z " fill="#000000"/><text fill="#000000" font-family="sans-serif" font-size="14" lengthAdjust="spacing" textLength="120" x="75.25" y="154.7285">RefinedAbstraction</text><line style="stroke:#181818;stroke-width:0.5;" x1="8" x2="230" y1="165" y2="165"/><rect fill="none" height="6" style="stroke:#C82930;stroke-width:1.0;" width="6" x="15" y="176.3047"/><text fill="#000000" font-family="sans-serif" font-size="14" lengthAdjust="spacing" textLength="198" x="27" y="183.5332">implementation: Implementation</text><line style="stroke:#181818;stroke-width:0.5;" x1="8" x2="230" y1="190.6094" y2="190.6094"/><ellipse cx="18" cy="204.9141" fill="#84BE84" rx="3" ry="3" style="stroke:#038048;stroke-width:1.0;"/><text fill="#000000" font-family="sans-serif" font-size="14" lengthAdjust="spacing" textLength="70" x="27" y="209.1426">operation()</text></g><!--link Abstraction to RefinedAbstraction--><g id="link_Abstraction_RefinedAbstraction"><path codeLine="29" d="M119,73.075 C119,89.456 119,109.677 119,127.67 " fill="none" id="Abstraction-to-RefinedAbstraction" style="stroke:#181818;stroke-width:1.0;"/><polygon fill="#181818" points="119,132.681,123,123.681,119,127.681,115,123.681,119,132.681" style="stroke:#181818;stroke-width:1.0;"/></g><!--link RefinedAbstraction to Implementation--><g id="link_RefinedAbstraction_Implementation"><path codeLine="30" d="M204.4113,221.8819 C204.4113,221.8819 265.048,254.8088 292.06,269.4771 " fill="none" id="RefinedAbstraction-Implementation" style="stroke:#181818;stroke-width:1.0;"/><polygon fill="#181818" points="193.866,216.155,197.2297,222.5335,204.4113,221.8819,201.0476,215.5034,193.866,216.155" style="stroke:#181818;stroke-width:1.0;"/><polygon fill="#181818" points="303.762,275.8316,297.7621,268.0213,299.3682,273.4454,293.9441,275.0515,303.762,275.8316" style="stroke:#181818;stroke-width:1.0;"/><line style="stroke:#181818;stroke-width:1.0;" x1="299.3682" x2="292.3375" y1="273.4454" y2="269.6279"/></g><!--link ConcreteImplementationA to Implementation--><g id="link_ConcreteImplementationA_Implementation"><path codeLine="31" d="M363,207.575 C363,226.557 363,250.6951 363,270.5485 " fill="none" id="ConcreteImplementationA-to-Implementation" style="stroke:#181818;stroke-width:1.0;"/><polygon fill="#181818" points="363,275.7616,367,266.7616,363,270.7616,359,266.7616,363,275.7616" style="stroke:#181818;stroke-width:1.0;"/></g><!--link ConcreteImplementationB to Implementation--><g id="link_ConcreteImplementationB_Implementation"><path codeLine="32" d="M536.565,207.575 C502.235,227.438 458.148,252.9469 422.999,273.2844 " fill="none" id="ConcreteImplementationB-to-Implementation" style="stroke:#181818;stroke-width:1.0;"/><polygon fill="#181818" points="418.32,275.9915,428.1132,274.9461,422.6477,273.4873,424.1065,268.0218,418.32,275.9915" style="stroke:#181818;stroke-width:1.0;"/></g><!--SRC=[yymhIIrAIqnELN1CAYufIamkoSpFKwZcKW02xVo2rA94a8269bSj5nTCXK9oJc9niO9dRa5EQcvgNaaYLZqWQOW-Px1ov_oyvABKabHKROvawdCYg2yeDIqpBpK5qrkwcIWcMQ5v1A_NGQRewjfXCPmBYtrQ8ALefkCA1gALEc5H2W00]--></g></svg>